HIERARCHY
ROOT Junyuan_V1:Solving:Hips
{
	OFFSET 0.000000 0.000000 0.000000
	CHANNELS 6 Xposition Yposition Zposition Xrotation Yrotation Zrotation
	JOINT Junyuan_V1:Solving:Spine
	{
		OFFSET 0.000000 -11.587388 2.561626
		CHANNELS 6 Xposition Yposition Zposition Xrotation Yrotation Zrotation
		JOINT Junyuan_V1:Solving:Spine1
		{
			OFFSET 0.000000 -9.293384 1.638677
			CHANNELS 6 Xposition Yposition Zposition Xrotation Yrotation Zrotation
			JOINT Junyuan_V1:Solving:Spine2
			{
				OFFSET 0.000000 -9.400841 0.822469
				CHANNELS 6 Xposition Yposition Zposition Xrotation Yrotation Zrotation
				JOINT Junyuan_V1:Solving:Spine3
				{
					OFFSET 0.000000 -9.436749 0.000000
					CHANNELS 6 Xposition Yposition Zposition Xrotation Yrotation Zrotation
					JOINT Junyuan_V1:Solving:Neck
					{
						OFFSET 0.000000 -12.132965 -1.213294
						CHANNELS 6 Xposition Yposition Zposition Xrotation Yrotation Zrotation
						JOINT Junyuan_V1:Solving:Neck1
						{
							OFFSET 0.000000 -6.347839 -0.555364
							CHANNELS 6 Xposition Yposition Zposition Xrotation Yrotation Zrotation
							JOINT Junyuan_V1:Solving:Head
							{
								OFFSET 0.000000 -6.275284 -1.106502
								CHANNELS 6 Xposition Yposition Zposition Xrotation Yrotation Zrotation
								JOINT Junyuan_V1:Solving:HeadEnd
								{
									OFFSET 0.000000 -9.728081 0.000002
									CHANNELS 6 Xposition Yposition Zposition Xrotation Yrotation Zrotation
									End Site
									{
										OFFSET 0.000000 -9.728081 0.000002
									}
								}
							}
						}
					}
					JOINT Junyuan_V1:Solving:RightShoulder
					{
						OFFSET 0.000000 -8.666405 -5.270916
						CHANNELS 6 Xposition Yposition Zposition Xrotation Yrotation Zrotation
						JOINT Junyuan_V1:Solving:RightArm
						{
							OFFSET -19.077805 -0.000008 0.000000
							CHANNELS 6 Xposition Yposition Zposition Xrotation Yrotation Zrotation
							JOINT Junyuan_V1:Solving:RightForeArm
							{
								OFFSET -27.209019 -0.000008 0.000000
								CHANNELS 6 Xposition Yposition Zposition Xrotation Yrotation Zrotation
								JOINT Junyuan_V1:Solving:RightHand
								{
									OFFSET -21.734264 -0.000008 0.000000
									CHANNELS 6 Xposition Yposition Zposition Xrotation Yrotation Zrotation
									JOINT Junyuan_V1:Solving:RightHandThumb1
									{
										OFFSET -3.883522 2.884647 -2.887744
										CHANNELS 6 Xposition Yposition Zposition Xrotation Yrotation Zrotation
										End Site
										{
											OFFSET -5.627335 0.000000 -5.679366
										}
									}
									JOINT Junyuan_V1:Solving:RightHandMiddle1
									{
										OFFSET -10.356049 -0.000004 0.066385
										CHANNELS 6 Xposition Yposition Zposition Xrotation Yrotation Zrotation
										End Site
										{
											OFFSET -7.995132 -0.000004 0.000000
										}
									}
								}
							}
						}
					}
					JOINT Junyuan_V1:Solving:LeftShoulder
					{
						OFFSET 0.000000 -8.666405 -5.270916
						CHANNELS 6 Xposition Yposition Zposition Xrotation Yrotation Zrotation
						JOINT Junyuan_V1:Solving:LeftArm
						{
							OFFSET 19.077805 -0.000008 0.000000
							CHANNELS 6 Xposition Yposition Zposition Xrotation Yrotation Zrotation
							JOINT Junyuan_V1:Solving:LeftForeArm
							{
								OFFSET 27.209019 -0.000008 0.000000
								CHANNELS 6 Xposition Yposition Zposition Xrotation Yrotation Zrotation
								JOINT Junyuan_V1:Solving:LeftHand
								{
									OFFSET 21.734264 -0.000008 0.000000
									CHANNELS 6 Xposition Yposition Zposition Xrotation Yrotation Zrotation
									JOINT Junyuan_V1:Solving:LeftHandThumb1
									{
										OFFSET 3.883522 2.884647 -2.887744
										CHANNELS 6 Xposition Yposition Zposition Xrotation Yrotation Zrotation
										End Site
										{
											OFFSET 5.627335 0.000000 -5.679366
										}
									}
									JOINT Junyuan_V1:Solving:LeftHandMiddle1
									{
										OFFSET 10.356049 -0.000004 0.066385
										CHANNELS 6 Xposition Yposition Zposition Xrotation Yrotation Zrotation
										End Site
										{
											OFFSET 7.995132 -0.000004 0.000000
										}
									}
								}
							}
						}
					}
				}
			}
		}
	}
	JOINT Junyuan_V1:Solving:RightUpLeg
	{
		OFFSET -10.145194 0.000000 0.000000
		CHANNELS 6 Xposition Yposition Zposition Xrotation Yrotation Zrotation
		JOINT Junyuan_V1:Solving:RightLeg
		{
			OFFSET 0.000000 45.059078 -0.000006
			CHANNELS 6 Xposition Yposition Zposition Xrotation Yrotation Zrotation
			JOINT Junyuan_V1:Solving:RightFoot
			{
				OFFSET 0.000000 37.058613 -0.000006
				CHANNELS 6 Xposition Yposition Zposition Xrotation Yrotation Zrotation
				JOINT Junyuan_V1:Solving:RightForeFoot
				{
					OFFSET 0.000000 3.397476 -0.000000
					CHANNELS 6 Xposition Yposition Zposition Xrotation Yrotation Zrotation
					JOINT Junyuan_V1:Solving:RightToeBase
					{
						OFFSET 0.000000 0.000000 -13.305598
						CHANNELS 6 Xposition Yposition Zposition Xrotation Yrotation Zrotation
						JOINT Junyuan_V1:Solving:RightToeBaseEnd
						{
							OFFSET 0.000000 0.000000 -4.190945
							CHANNELS 6 Xposition Yposition Zposition Xrotation Yrotation Zrotation
							End Site
							{
								OFFSET 0.000000 -4.190948 0.000000
							}
						}
					}
				}
			}
		}
	}
	JOINT Junyuan_V1:Solving:LeftUpLeg
	{
		OFFSET 10.145194 0.000000 0.000000
		CHANNELS 6 Xposition Yposition Zposition Xrotation Yrotation Zrotation
		JOINT Junyuan_V1:Solving:LeftLeg
		{
			OFFSET 0.000000 45.059078 -0.000006
			CHANNELS 6 Xposition Yposition Zposition Xrotation Yrotation Zrotation
			JOINT Junyuan_V1:Solving:LeftFoot
			{
				OFFSET 0.000000 37.058613 -0.000006
				CHANNELS 6 Xposition Yposition Zposition Xrotation Yrotation Zrotation
				JOINT Junyuan_V1:Solving:LeftForeFoot
				{
					OFFSET 0.000000 3.397476 -0.000000
					CHANNELS 6 Xposition Yposition Zposition Xrotation Yrotation Zrotation
					JOINT Junyuan_V1:Solving:LeftToeBase
					{
						OFFSET 0.000000 0.000000 -13.305598
						CHANNELS 6 Xposition Yposition Zposition Xrotation Yrotation Zrotation
						JOINT Junyuan_V1:Solving:LeftToeBaseEnd
						{
							OFFSET 0.000000 0.000000 -4.652039
							CHANNELS 6 Xposition Yposition Zposition Xrotation Yrotation Zrotation
							End Site
							{
								OFFSET 0.000000 -4.652039 0.000000
							}
						}
					}
				}
			}
		}
	}
}
MOTION
Frames: 4
Frame Time: 0.041667
-33.577393 77.295258 -88.691101 96.416398 -164.451339 0.657747 -0.000001 -11.587370 2.561625 13.688707 -0.439326 -1.502487 0.000006 -9.293371 1.638663 2.311318 -0.006241 -0.255912 -0.000007 -9.400862 0.822467 -1.748329 -2.572426 0.710958 0.000000 -9.436753 -0.000006 -0.199794 -1.938632 1.951252 -0.000001 -12.132919 -1.213323 -8.598074 2.902978 -1.511025 0.000005 -6.347851 -0.555372 -7.456537 -3.869628 3.878668 0.000001 -6.275295 -1.106509 -4.613623 -1.142186 2.873416 -0.000002 -9.728088 -0.000009 0.000002 -0.000000 -0.000001 -0.000003 -8.666389 -5.270918 -0.000006 15.635613 8.110814 -19.077806 0.000016 0.000008 -15.035229 -16.561631 -59.760132 -27.209034 -0.000024 -0.000015 8.441368 -2.192404 0.325285 -21.734255 0.000003 0.000001 -0.117267 -4.662356 -1.442399 -3.883531 2.884644 -2.887760 0.000000 -0.000002 0.000007 -10.356047 -0.000007 0.066379 -0.000002 0.000001 0.000002 -0.000005 -8.666393 -5.270918 -0.000008 -21.156091 -12.106135 19.077806 -0.000014 -0.000001 -17.210373 20.595836 58.859463 27.209030 0.000022 0.000018 -5.057533 4.535800 0.400991 21.734257 -0.000014 -0.000001 -1.939499 -7.482731 -14.576051 3.883505 2.884602 -2.887742 0.000003 -0.000005 -0.000002 10.356050 -0.000051 0.066379 0.000001 -0.000000 0.000001 -10.145190 0.000004 -0.000020 10.102163 11.483030 -0.615146 0.000007 45.059063 -0.000010 -0.974671 0.000005 -0.000000 0.000001 37.058620 -0.000005 1.062839 -4.950190 8.536418 0.000004 3.397476 -0.000001 -0.000000 0.000001 -0.000001 0.000003 -0.000000 -13.305614 4.867338 -0.000002 -0.000001 -0.000008 -0.000008 -4.190951 0.000001 -0.000003 0.000000 10.145196 0.000012 0.000002 -4.787803 -23.867080 -12.209453 -0.000001 45.059082 -0.000015 15.488169 0.000001 -0.000001 0.000012 37.058586 -0.000008 -5.475267 -10.805690 5.166496 -0.000002 3.397476 0.000003 0.000000 -0.000002 0.000000 -0.000008 -0.000006 -13.305591 10.798278 0.000004 0.000000 -0.000014 0.000000 -4.652034 0.000001 0.000003 -0.000000 
-33.682076 77.181763 -88.669777 96.483150 -164.432488 0.738153 0.000003 -11.587404 2.561629 13.661574 -0.437158 -1.505335 -0.000004 -9.293402 1.638663 2.323788 -0.005424 -0.255452 0.000003 -9.400850 0.822483 -1.706032 -2.583673 0.697927 -0.000006 -9.436725 -0.000013 -0.172557 -1.934580 1.916400 -0.000007 -12.132991 -1.213284 -8.462787 2.824219 -1.511416 0.000005 -6.347817 -0.555362 -7.321303 -3.961952 3.928647 -0.000001 -6.275302 -1.106479 -4.513360 -1.152985 2.904141 -0.000006 -9.728088 0.000005 0.000001 -0.000001 -0.000001 -0.000007 -8.666409 -5.270910 -0.000002 15.376571 7.747741 -19.077814 -0.000014 0.000013 -14.868714 -16.849621 -60.282881 -27.209034 0.000003 0.000006 8.814749 -2.169584 0.336373 -21.734276 -0.000013 -0.000004 -0.257498 -4.883402 -3.022057 -3.883541 2.884641 -2.887745 -0.000005 0.000002 0.000005 -10.356072 -0.000020 0.066374 -0.000000 0.000003 -0.000001 -0.000009 -8.666409 -5.270910 -0.000002 -20.995371 -11.779630 19.077801 -0.000002 0.000005 -17.453186 20.164798 59.606740 27.209034 -0.000007 0.000012 -6.372792 5.271187 0.587873 21.734247 0.000013 -0.000007 -2.005308 -7.524930 -14.968788 3.883520 2.884661 -2.887743 -0.000008 0.000002 -0.000002 10.356054 0.000024 0.066400 -0.000004 -0.000002 -0.000002 -10.145198 -0.000010 -0.000003 10.200132 11.413417 -0.583313 0.000010 45.059059 -0.000017 -0.932065 0.000002 -0.000000 -0.000003 37.058617 -0.000018 0.941698 -4.851401 8.435374 0.000006 3.397476 -0.000001 -0.000001 -0.000001 -0.000001 -0.000001 0.000011 -13.305587 4.921826 0.000003 0.000000 0.000001 0.000000 -4.190938 0.000001 0.000003 0.000000 10.145197 -0.000021 -0.000018 -4.749699 -24.373098 -12.408693 0.000001 45.059082 -0.000001 14.361984 0.000002 -0.000000 -0.000004 37.058609 0.000001 -4.836433 -11.071109 5.214820 -0.000016 3.397476 -0.000010 0.000000 0.000002 0.000000 0.000000 0.000013 -13.305595 10.960351 0.000007 -0.000000 0.000008 -0.000000 -4.652047 -0.000000 0.000001 -0.000000 
-33.799202 77.060295 -88.647491 96.563097 -164.439386 0.816816 -0.000005 -11.587393 2.561613 13.637300 -0.435725 -1.518975 0.000000 -9.293389 1.638678 2.338879 -0.003667 -0.257753 0.000001 -9.400837 0.822497 -1.666746 -2.579723 0.692127 0.000003 -9.436739 0.000001 -0.144790 -1.927185 1.897487 -0.000004 -12.132915 -1.213247 -8.303750 2.758125 -1.535389 0.000005 -6.347843 -0.555381 -7.186779 -4.059339 3.974608 -0.000001 -6.275280 -1.106503 -4.420868 -1.163869 2.933237 -0.000001 -9.728088 -0.000004 0.000002 0.000000 0.000001 -0.000004 -8.666382 -5.270875 -0.000006 15.117908 7.383685 -19.077803 0.000035 0.000000 -14.745041 -17.057665 -60.808355 -27.209042 0.000017 0.000005 9.199762 -2.154024 0.348782 -21.734270 0.000019 0.000000 -0.401452 -5.058296 -4.543737 -3.883530 2.884650 -2.887749 -0.000001 -0.000002 -0.000001 -10.356072 -0.000006 0.066389 -0.000001 -0.000002 -0.000001 -0.000006 -8.666386 -5.270876 -0.000005 -20.841846 -11.477941 19.077805 -0.000000 0.000002 -17.446680 20.079831 60.285510 27.209028 -0.000014 0.000008 -8.006019 6.113312 0.858124 21.734253 0.000003 -0.000008 -2.052496 -7.520743 -15.313054 3.883506 2.884663 -2.887761 -0.000002 0.000005 -0.000001 10.356049 0.000003 0.066382 0.000001 -0.000000 -0.000000 -10.145199 -0.000019 -0.000006 10.316788 11.361917 -0.542250 0.000001 45.059067 -0.000019 -0.911115 -0.000004 0.000000 -0.000007 37.058617 -0.000018 0.841115 -4.799183 8.316834 -0.000007 3.397484 0.000005 -0.000000 -0.000001 -0.000003 -0.000001 0.000006 -13.305602 4.935424 0.000001 0.000000 0.000003 0.000000 -4.190935 0.000000 -0.000002 -0.000001 10.145185 -0.000003 -0.000017 -4.669268 -24.811449 -12.551333 0.000009 45.059067 -0.000005 13.252202 0.000002 -0.000003 0.000001 37.058643 -0.000001 -4.263275 -11.504280 5.288322 0.000028 3.397476 0.000009 0.000000 -0.000000 0.000000 0.000011 -0.000012 -13.305582 11.258384 0.000003 -0.000000 0.000010 -0.000000 -4.652040 -0.000001 -0.000002 0.000001 
-33.915077 76.939445 -88.621040 96.648270 -164.478892 0.923548 0.000004 -11.587388 2.561604 13.615200 -0.433053 -1.547218 0.000003 -9.293356 1.638672 2.359092 -0.002161 -0.259581 -0.000001 -9.400847 0.822471 -1.629724 -2.572616 0.681859 -0.000001 -9.436723 -0.000015 -0.118981 -1.920842 1.857796 -0.000002 -12.132957 -1.213329 -8.141249 2.719398 -1.560539 -0.000008 -6.347859 -0.555364 -7.061511 -4.138221 4.024841 0.000003 -6.275272 -1.106504 -4.337569 -1.172355 2.960467 0.000002 -9.728081 -0.000013 0.000000 0.000001 -0.000000 -0.000010 -8.666405 -5.270940 -0.000006 14.891783 7.053631 -19.077799 0.000000 -0.000002 -14.721660 -17.172690 -61.368929 -27.209024 -0.000017 -0.000016 9.645790 -2.122097 0.360589 -21.734287 -0.000008 -0.000001 -0.541874 -5.159284 -6.003998 -3.883508 2.884645 -2.887767 -0.000007 -0.000003 -0.000002 -10.356052 0.000003 0.066366 -0.000001 0.000003 -0.000005 -0.000013 -8.666405 -5.270941 -0.000007 -20.642169 -11.203927 19.077803 0.000006 0.000002 -17.970661 19.380252 61.210127 27.209044 0.000010 0.000010 -8.588111 6.648146 1.001675 21.734255 0.000012 0.000008 -2.052609 -7.426298 -15.498232 3.883530 2.884639 -2.887766 0.000000 -0.000002 0.000001 10.356063 -0.000030 0.066379 -0.000004 -0.000002 -0.000001 -10.145194 0.000013 -0.000021 10.441542 11.334975 -0.536339 0.000007 45.059086 0.000002 -0.874888 -0.000001 0.000000 0.000006 37.058620 -0.000013 0.743667 -4.725119 8.202178 -0.000001 3.397476 0.000007 -0.000001 -0.000003 -0.000001 -0.000001 -0.000009 -13.305593 4.917323 -0.000003 0.000001 0.000003 -0.000015 -4.190947 -0.000000 0.000004 -0.000000 10.145192 -0.000008 -0.000012 -4.644205 -25.270443 -12.725932 -0.000014 45.059067 -0.000004 12.230550 0.000000 -0.000000 -0.000013 37.058624 -0.000004 -3.736633 -12.001564 5.312490 0.000007 3.397476 -0.000010 0.000000 0.000001 0.000000 0.000012 0.000006 -13.305618 11.297655 -0.000000 -0.000000 -0.000002 0.000007 -4.652038 -0.000001 -0.000003 -0.000000 
